<?xml version="1.0" encoding="UTF-8" standalone="no"?>
<svg
   xmlns:sketch="http://www.bohemiancoding.com/sketch/ns"
   xmlns:dc="http://purl.org/dc/elements/1.1/"
   xmlns:cc="http://creativecommons.org/ns#"
   xmlns:rdf="http://www.w3.org/1999/02/22-rdf-syntax-ns#"
   xmlns:svg="http://www.w3.org/2000/svg"
   xmlns="http://www.w3.org/2000/svg"
   xmlns:sodipodi="http://sodipodi.sourceforge.net/DTD/sodipodi-0.dtd"
   xmlns:inkscape="http://www.inkscape.org/namespaces/inkscape"
   width="71px"
   height="71px"
   viewBox="0 0 71 71"
   version="1.1"
   id="svg885"
   sodipodi:docname="logo.svg"
   inkscape:version="0.92.4 5da689c313, 2019-01-14">
  <metadata
     id="metadata889">
    <rdf:RDF>
      <cc:Work
         rdf:about="">
        <dc:format>image/svg+xml</dc:format>
        <dc:type
           rdf:resource="http://purl.org/dc/dcmitype/StillImage" />
      </cc:Work>
    </rdf:RDF>
  </metadata>
  <sodipodi:namedview
     pagecolor="#ffffff"
     bordercolor="#666666"
     borderopacity="1"
     objecttolerance="10"
     gridtolerance="10"
     guidetolerance="10"
     inkscape:pageopacity="0"
     inkscape:pageshadow="2"
     inkscape:window-width="1880"
     inkscape:window-height="1016"
     id="namedview887"
     showgrid="false"
     inkscape:zoom="11.661972"
     inkscape:cx="35.5"
     inkscape:cy="35.5"
     inkscape:window-x="20"
     inkscape:window-y="44"
     inkscape:window-maximized="0"
     inkscape:current-layer="ow-stacked" />
  <!-- Generator: Sketch 3.3.3 (12081) - http://www.bohemiancoding.com/sketch -->
  <title
     id="title857">ow-stacked</title>
  <desc
     id="desc859">Created with Sketch.</desc>
  <defs
     id="defs861" />
  <g
     id="Page-1"
     sketch:type="MSPage"
     style="fill:none;fill-rule:evenodd;stroke:none;stroke-width:1"
     inkscape:label="Page 1">
    <g
       id="Spec.fm-Copy-2"
       sketch:type="MSArtboardGroup"
       transform="translate(-477,-181)"
       inkscape:label="Full Logo">
      <g
         id="ow-stacked"
         sketch:type="MSLayerGroup"
         transform="translate(477,181)"
         inkscape:label="ow-stacked">
        <circle
           id="Oval"
           sketch:type="MSShapeGroup"
           cx="35.644001"
           cy="35.382999"
           r="34.834"
           style="stroke:#00aeef"
           inkscape:label="o" />
        <g
           id="Group"
           transform="translate(3,3)"
           sketch:type="MSShapeGroup"
           style="fill:#27aae1"
           inkscape:label="w">
          <path
             d="m 13.057,31.934 c 0.111,0.41 0.143,0.818 0.139,1.225 l 18.028,1.25 c 0.203,-1.366 1.174,-2.418 2.407,-2.812 L 28.581,9.901 C 28.379,9.923 28.173,9.93 27.961,9.899 27.618,9.848 27.306,9.724 27.03,9.549 L 11.065,29.28 c 0.941,0.583 1.678,1.5 1.992,2.654 z"
             id="Shape"
             inkscape:connector-curvature="0" />
          <path
             d="M 40.328,20.7 29.746,9.448 C 29.557,9.589 29.343,9.692 29.12,9.772 l 5.051,21.702 c 0.336,-0.051 0.681,-0.069 1.034,-0.017 0.364,0.055 0.698,0.177 1.012,0.33 l 4.499,-7.642 c -0.674,-0.514 -1.064,-1.358 -0.931,-2.256 0.066,-0.456 0.264,-0.861 0.543,-1.189 z"
             id="path865"
             inkscape:connector-curvature="0" />
          <path
             d="m 41.806,24.616 c -0.219,-0.032 -0.421,-0.103 -0.614,-0.188 l -4.498,7.639 c 1.051,0.736 1.665,2.014 1.464,3.373 -0.026,0.175 -0.077,0.338 -0.127,0.502 l 9.695,8.203 c 0.303,-0.24 0.636,-0.435 0.994,-0.584 L 42.621,24.588 c -0.263,0.052 -0.535,0.069 -0.815,0.028 z"
             id="path867"
             inkscape:connector-curvature="0" />
          <path
             d="m 40.765,59.803 c -0.319,-0.476 -0.475,-1.064 -0.384,-1.677 0.014,-0.093 0.043,-0.178 0.067,-0.267 L 26.191,52.208 c -0.645,1.356 -2.104,2.205 -3.667,1.972 -1.914,-0.282 -3.237,-2.064 -2.954,-3.98 0.076,-0.508 0.26,-0.968 0.521,-1.373 L 10.352,37.312 c -0.159,0.062 -0.31,0.139 -0.478,0.184 C 7.459,38.152 4.969,36.729 4.312,34.312 3.654,31.897 5.08,29.407 7.496,28.75 8.562,28.459 9.635,28.594 10.565,29.021 L 26.605,9.197 C 26.1,8.678 25.827,7.944 25.94,7.173 26.134,5.861 27.354,4.957 28.665,5.15 c 1.311,0.194 2.217,1.415 2.022,2.726 -0.067,0.458 -0.266,0.861 -0.544,1.19 l 10.583,11.251 c 0.493,-0.367 1.126,-0.545 1.783,-0.447 0.894,0.133 1.588,0.745 1.885,1.535 l 10.034,-2.479 c 0.341,-0.758 0.925,-1.367 1.654,-1.722 L 47.732,4.083 C 44.575,2.401 41.082,1.216 37.34,0.662 19.819,-1.932 3.513,10.17 0.92,27.69 c -2.593,17.521 9.507,33.825 27.028,36.419 2.537,0.376 5.045,0.435 7.494,0.222 z"
             id="path869"
             inkscape:connector-curvature="0" />
          <path
             d="m 48.75,4.654 7.861,12.353 c 0.477,-0.143 0.988,-0.194 1.513,-0.116 1.914,0.282 3.237,2.064 2.953,3.98 -0.246,1.662 -1.621,2.872 -3.231,2.98 l -4.823,20.34 c 1.103,0.911 1.727,2.347 1.502,3.865 -0.342,2.307 -2.488,3.9 -4.795,3.56 -0.423,-0.062 -0.811,-0.204 -1.178,-0.378 l -4.5,5.225 c 0.767,0.496 1.218,1.404 1.076,2.365 -0.193,1.311 -1.414,2.216 -2.725,2.021 -0.501,-0.073 -0.94,-0.299 -1.285,-0.62 l -4.709,4.005 C 50.444,62.583 62.2,51.73 64.368,37.083 66.346,23.711 59.763,11.057 48.75,4.654 Z"
             id="path871"
             inkscape:connector-curvature="0" />
          <path
             d="m 23.55,47.245 c 0.442,0.065 0.85,0.219 1.218,0.429 L 31.917,37.061 C 31.462,36.471 31.204,35.74 31.196,34.959 L 13.175,33.71 c -0.061,0.465 -0.209,0.905 -0.406,1.324 l 10.309,12.188 c 0.158,0.004 0.313,-0.001 0.472,0.023 z"
             id="path873"
             inkscape:connector-curvature="0" />
          <path
             d="m 46.173,46.821 c 0.016,-0.105 0.054,-0.202 0.077,-0.305 l -9.998,-8.459 c -0.032,0.017 -0.064,0.032 -0.098,0.049 l 5.553,18.213 c 0.42,-0.204 0.902,-0.29 1.399,-0.217 0.15,0.022 0.293,0.062 0.433,0.108 l 4.513,-5.24 c -1.339,-0.872 -2.129,-2.464 -1.879,-4.149 z"
             id="path875"
             inkscape:connector-curvature="0" />
          <path
             d="m 54.142,19.845 c 0.015,-0.104 0.052,-0.197 0.076,-0.298 l -9.69,2.396 c 0.027,0.213 0.036,0.43 0.003,0.652 -0.124,0.836 -0.667,1.503 -1.382,1.829 L 49.24,43.37 c 0.547,-0.149 1.132,-0.194 1.728,-0.106 10e-4,0 0.002,0.002 0.003,0.002 l 4.737,-19.973 c -1.116,-0.725 -1.773,-2.049 -1.566,-3.448 z"
             id="path877"
             inkscape:connector-curvature="0" />
          <path
             d="m 26.387,51.691 14.261,5.652 c 0.148,-0.272 0.343,-0.511 0.578,-0.705 L 35.633,38.296 c -0.46,0.129 -0.953,0.172 -1.457,0.097 -0.146,-0.021 -0.281,-0.067 -0.419,-0.105 l -7.486,11.11 c 0.23,0.562 0.328,1.185 0.233,1.829 -0.023,0.163 -0.073,0.312 -0.117,0.464 z"
             id="path879"
             inkscape:connector-curvature="0" />
        </g>
      </g>
    </g>
  </g>
</svg>
