<?xml version="1.0" encoding="UTF-8" standalone="no"?>
<svg width="11px" height="11px" viewBox="0 0 11 11" version="1.1" xmlns="http://www.w3.org/2000/svg" xmlns:xlink="http://www.w3.org/1999/xlink" xmlns:sketch="http://www.bohemiancoding.com/sketch/ns">
    <!-- Generator: Sketch 3.3.3 (12081) - http://www.bohemiancoding.com/sketch -->
    <title>crop13</title>
    <desc>Created with Sketch.</desc>
    <defs></defs>
    <g id="v1" stroke="none" stroke-width="1" fill="none" fill-rule="evenodd" sketch:type="MSPage">
        <g id="Home-Copy-7" sketch:type="MSArtboardGroup" transform="translate(-79.000000, -517.000000)" fill="#59626A">
            <g id="crop13" sketch:type="MSLayerGroup" transform="translate(79.000000, 517.000000)">
                <g id="crop-free" sketch:type="MSShapeGroup">
                    <path d="M0,1.22222222 L0,3.66666667 L1.22222222,3.66666667 L1.22222222,1.22222222 L3.66666667,1.22222222 L3.66666667,0 L1.22222222,0 C0.55,0 0,0.55 0,1.22222222 L0,1.22222222 Z M1.22222222,7.33333333 L0,7.33333333 L0,9.77777778 C0,10.45 0.55,11 1.22222222,11 L3.66666667,11 L3.66666667,9.77777778 L1.22222222,9.77777778 L1.22222222,7.33333333 L1.22222222,7.33333333 Z M9.77777778,9.77777778 L7.33333333,9.77777778 L7.33333333,11 L9.77777778,11 C10.45,11 11,10.45 11,9.77777778 L11,7.33333333 L9.77777778,7.33333333 L9.77777778,9.77777778 L9.77777778,9.77777778 Z M9.77777778,0 L7.33333333,0 L7.33333333,1.22222222 L9.77777778,1.22222222 L9.77777778,3.66666667 L11,3.66666667 L11,1.22222222 C11,0.55 10.45,0 9.77777778,0 L9.77777778,0 Z" id="Shape"></path>
                </g>
            </g>
        </g>
    </g>
</svg>